<?xml version="1.0" encoding="UTF-8" standalone="no"?>
<svg
   width="200"
   height="200"
   viewBox="0 0 200 200"
   version="1.1"
   id="svg2252"
   xmlns="http://www.w3.org/2000/svg"
   xmlns:svg="http://www.w3.org/2000/svg">
  <defs
     id="defs2244" />
  <g
     id="g2250">
    <path
       id="path1024"
       d="M 100 7.8359375 A 92.164001 92.163849 0 0 0 7.8359375 100 A 92.164001 92.163849 0 0 0 100 192.16406 A 92.164001 92.163849 0 0 0 192.16406 100 A 92.164001 92.163849 0 0 0 100 7.8359375 z M 77.582031 44.291016 L 148 44.291016 L 148 74.708984 L 77.582031 74.708984 L 77.582031 44.291016 z M 54.5 44.701172 A 14.798226 14.798226 0 0 1 69.298828 59.5 A 14.798226 14.798226 0 0 1 54.5 74.298828 A 14.798226 14.798226 0 0 1 39.701172 59.5 A 14.798226 14.798226 0 0 1 54.5 44.701172 z M 78.791016 84.791016 L 149.20898 84.791016 L 149.20898 115.20898 L 78.791016 115.20898 L 78.791016 84.791016 z M 54.5 85.201172 A 14.798226 14.798226 0 0 1 69.298828 100 A 14.798226 14.798226 0 0 1 54.5 114.79883 A 14.798226 14.798226 0 0 1 39.701172 100 A 14.798226 14.798226 0 0 1 54.5 85.201172 z M 77.582031 125.29102 L 148 125.29102 L 148 155.70898 L 77.582031 155.70898 L 77.582031 125.29102 z M 54.5 125.70117 A 14.798226 14.798226 0 0 1 69.298828 140.5 A 14.798226 14.798226 0 0 1 54.5 155.29883 A 14.798226 14.798226 0 0 1 39.701172 140.5 A 14.798226 14.798226 0 0 1 54.5 125.70117 z "
       style="fill:#000000;fill-opacity:1;stroke:#ffffff;stroke-width:5.6723;stroke-miterlimit:0" />
  </g>
</svg>
